<?xml version="1.0" encoding="utf-8"?>
<!-- Generator: Adobe Illustrator 18.1.1, SVG Export Plug-In . SVG Version: 6.00 Build 0)  -->
<svg version="1.1" id="Layer_1" xmlns="http://www.w3.org/2000/svg" xmlns:xlink="http://www.w3.org/1999/xlink" x="0px" y="0px"
	 viewBox="0 0 400 300" enable-background="new 0 0 400 300" xml:space="preserve">
<ellipse id="head_3_" transform="matrix(-0.9984 5.691018e-02 -5.691018e-02 -0.9984 579.7532 175.3828)" fill="#DBD1BF" stroke="#000000" stroke-width="5.202" stroke-miterlimit="10" cx="287.4" cy="95.9" rx="56.7" ry="61.3"/>
<path id="body_3_" fill="#336699" stroke="#000000" stroke-width="5.202" stroke-miterlimit="10" d="M259.9,153.8
	c0,0,24.6,24.1,64.4-3.7c47.4-33,70.3,88.9,70.3,88.9s-85.8,43.9-182.1,17.1C212.5,256.2,202.7,157.1,259.9,153.8z"/>
<path stroke="#000000" stroke-width="1.6109" stroke-miterlimit="10" d="M308.2,67.1c-1.4-4.3-1.8-4.8-6.1-3.4
	c-20.8,6.8-50.5,23.6-79.4,17.5c-21-4.5,4.6-31.5,5.2-31.7c7.5-2.7,68.1-59.9,98.1-22.4c19.6,24.5,26.1,49.7,28.2,60
	c0.6,3,1.3,22.4-14.1,31.9c-2.7,1.6-16,1.3-12-3.6c4.9-6,8.5-45.7-8.4-26.3L308.2,67.1z"/>
<ellipse id="head_2_" transform="matrix(-1 -1.490743e-03 1.490743e-03 -1 218.6344 207.2897)" fill="#DBD1BF" stroke="#000000" stroke-width="5.202" stroke-miterlimit="10" cx="109.4" cy="103.6" rx="65" ry="70.2"/>
<path id="body_2_" fill="#336699" stroke="#000000" stroke-width="5.202" stroke-miterlimit="10" d="M72.5,166
	c0,0,37.4,40.7,76.4-2.1c35.1-38.7,80,97.5,80,97.5s-111.4,45.8-219.6,8.8C9.2,270.1,13.7,159.7,72.5,166z"/>
<path stroke="#000000" stroke-width="1.8441" stroke-miterlimit="10" d="M63.3,152.1c0,0,0,0-19,3.5C25.4,159.1,8.1,135,8.1,135
	s-14.1-21.6,8-44.9c0,0,1.9-61.4,48.4-67.3s73.4-0.6,84.2-16.3c0,0,70.4,62.1,62.2,101.8c-8.9,43-51.1,39.7-51.1,39.7
	s10.4-60.8-19.3-93.3c0,0-19.6,19.1-85.3,25.2C55.1,79.8,49.6,126.8,63.3,152.1z"/>
</svg>
